#!OML:ASF F:\VICON\USERDATA\Patient Classification 1\PLAYGROUND\JustinFriday\JustinFriday.ASF
:FULLY-SPECIFIED
:DEGREES
3529
root 4.55338 17.8915 27.6521 183.171 -126.384 174.379
lowerback 10.2964 2.45958 2.86835
upperback 2.66139 3.58808 2.58342
thorax -2.98217 1.74096 0.616858
lowerneck -4.46155 8.35893 1.51118
upperneck 24.7912 12.0772 -3.92458
head 8.80823 5.33007 -0.509526
rclavicle 2.27608e-014 2.90226e-014
rhumerus -30.4463 -19.3453 -73.0182
rradius 25.5753
rwrist -5.63669
rhand -17.7065 338.089
rfingers 7.12502
rthumb 8.55358 -51.718
lclavicle 2.27608e-014 2.90226e-014
lhumerus -34.1733 9.41882 79.7504
lradius 34.2533
lwrist -1.66881
lhand -8.08328 -7.48292
lfingers 7.12502
lthumb 17.8287 21.7198
rfemur -15.8599 0.511175 17.3946
rtibia 71.4044
rfoot 0.662931 -10.0395
rtoes -50.6735
lfemur -7.43928 5.17858 -25.144
ltibia 21.8894
lfoot -9.87091 5.93318
ltoes 25.8653
3530
root 4.44789 17.8801 27.7508 182.514 -127.124 174.861
lowerback 10.3034 2.38549 2.72972
upperback 2.68723 3.47356 2.50278
thorax -2.96337 1.68591 0.625158
lowerneck -3.97742 8.28812 2.14699
upperneck 24.406 12.0166 -4.5243
head 8.66556 5.32465 -0.841444
rclavicle -1.17979e-013 4.05521e-014
rhumerus -30.7673 -17.7984 -73.5147
rradius 26.3741
rwrist -7.58615
rhand -18.0689 337.473
rfingers 7.12502
rthumb 8.20382 -52.348
lclavicle -1.17979e-013 4.05521e-014
lhumerus -34.4354 9.0388 79.93
lradius 35.2175
lwrist -1.33692
lhand -8.43742 -7.54294
lfingers 7.12502
lthumb 17.4879 21.6905
rfemur -16.686 0.685161 17.2535
rtibia 71.8006
rfoot -1.04343 -10.9801
rtoes -49.0692
lfemur -6.40636 5.28251 -25.4136
ltibia 21.4955
lfoot -10.0011 5.18321
ltoes 25.2286
3531
root 4.33991 17.8686 27.8574 181.077 -127.723 176.357
lowerback 10.1117 2.32592 1.95019
upperback 2.84602 3.2951 2.20227
thorax -2.72088 1.60525 0.783192
lowerneck -4.738 8.20739 1.87089
upperneck 25.1136 11.8563 -3.96313
head 8.98926 5.23991 -0.581033
rclavicle 8.31914e-014 -5.96354e-015
rhumerus -30.7096 -17.0663 -73.8675
rradius 26.6749
rwrist -8.78386
rhand -18.1795 337.516
rfingers 7.12502
rthumb 8.09714 -52.3085
lclavicle 8.31914e-014 -5.96354e-015
lhumerus -34.5172 8.83005 79.935
lradius 36.1894
lwrist -1.24454
lhand -8.38897 -7.70717
lfingers 7.12502
lthumb 17.5345 21.5221
rfemur -17.4766 0.966646 16.3032
rtibia 72.0513
rfoot -3.13425 -11.4962
rtoes -46.3631
lfemur -5.37923 4.96236 -26.4678
ltibia 21.257
lfoot -10.2883 5.0181
ltoes 23.8026
3532
root 4.24196 17.855 27.9396 180.49 -128.349 177.122
lowerback 9.9791 2.29898 1.40832
upperback 2.83809 3.20236 2.12072
thorax -2.68139 1.56273 1.01799
lowerneck -5.15907 8.146 1.71273
upperneck 25.6101 11.7875 -3.8025
head 9.21842 5.1843 -0.481356
rclavicle -7.71285e-014 7.95139e-015
rhumerus -30.7747 -16.8779 -73.8198
rradius 26.982
rwrist -9.46946
rhand -17.882 337.189
rfingers 7.12502
rthumb 8.38419 -52.6242
lclavicle -7.71285e-014 7.95139e-015
lhumerus -34.3377 8.31692 80.2272
lradius 36.5783
lwrist -0.550451
lhand -8.87551 -7.9698
lfingers 7.12502
lthumb 17.0663 21.3006
rfemur -18.6581 1.38534 15.93
rtibia 72.1255
rfoot -3.78144 -12.1552
rtoes -44.6998
lfemur -4.79819 4.63746 -27.0101
ltibia 21.0497
lfoot -10.2408 4.84958
ltoes 21.5139
3533
root 4.14884 17.8321 28.0048 181 -129.107 176.642
lowerback 9.96557 2.22834 1.59203
upperback 2.69139 3.13711 2.24324
thorax -2.82256 1.52956 1.04696
lowerneck -5.28291 8.04312 1.59044
upperneck 25.8869 11.6399 -3.64372
head 9.31582 5.10899 -0.413693
rclavicle 4.4329e-014 3.57812e-015
rhumerus -31.018 -17.0291 -73.6519
rradius 27.131
rwrist -9.80849
rhand -17.5626 337.51
rfingers 7.12502
rthumb 8.69246 -52.291
lclavicle 4.4329e-014 3.57812e-015
lhumerus -34.2617 7.55113 80.6157
lradius 36.997
lwrist 0.405198
lhand -9.74028 -8.0788
lfingers 7.12502
lthumb 16.2337 21.2615
rfemur -19.9912 1.87446 16.5347
rtibia 71.9785
rfoot -4.25235 -13.042
rtoes -42.6614
lfemur -4.43596 4.62275 -26.5997
ltibia 20.7796
lfoot -10.1957 4.22097
ltoes 20.5219
3534
root 4.05014 17.8098 28.0918 180.65 -129.911 176.998
lowerback 9.83747 2.12917 1.35472
upperback 2.74465 2.97718 2.21551
thorax -2.70602 1.4523 1.17644
lowerneck -5.1153 7.96404 1.64905
upperneck 25.533 11.5336 -3.75948
head 9.16708 5.07073 -0.485687
rclavicle -4.17448e-014 -8.74653e-015
rhumerus -31.0128 -17.6431 -73.3988
rradius 27.104
rwrist -9.51598
rhand -17.1908 337.273
rfingers 7.12502
rthumb 9.05122 -52.5124
lclavicle -4.17448e-014 -8.74653e-015
lhumerus -34.3808 7.10895 80.9499
lradius 38.0443
lwrist 1.21771
lhand -10.3387 -7.59208
lfingers 7.12502
lthumb 15.6575 21.7944
rfemur -20.8748 2.21411 16.4018
rtibia 71.6389
rfoot -4.92585 -13.7512
rtoes -40.4203
lfemur -3.74762 4.59022 -26.7917
ltibia 20.5444
lfoot -10.683 3.4834
ltoes 22.3735
3535
root 3.95111 17.795 28.1893 179.682 -130.849 178.05
lowerback 9.76096 1.96919 0.588009
upperback 2.82485 2.68581 2.12918
thorax -2.60831 1.31093 1.55586
lowerneck -5.01777 7.90454 1.70312
upperneck 25.292 11.4888 -3.98943
head 9.08122 5.04326 -0.583318
rclavicle -9.93923e-014 1.03368e-014
rhumerus -30.9835 -17.3775 -73.3271
rradius 27.2495
rwrist -9.64496
rhand -17.3969 338.877
rfingers 7.12502
rthumb 8.85233 -50.9172
lclavicle -9.93923e-014 1.03368e-014
lhumerus -34.6148 6.98582 81.2397
lradius 39.2372
lwrist 1.98269
lhand -10.826 -7.0286
lfingers 7.12502
lthumb 15.1881 22.394
rfemur -21.5714 2.28567 15.6484
rtibia 71.1753
rfoot -5.35205 -14.1702
rtoes -38.5039
lfemur -2.96116 4.35181 -27.5253
ltibia 20.3988
lfoot -11.2323 2.816
ltoes 23.8915
3536
root 3.85796 17.7846 28.2693 179.269 -131.794 178.59
lowerback 9.80262 1.83043 0.0779054
upperback 2.75668 2.45618 2.09607
thorax -2.71629 1.19983 1.83304
lowerneck -5.11703 7.79294 1.49593
upperneck 25.5593 11.3145 -3.73259
head 9.15792 4.95796 -0.473861
rclavicle 5.85421e-014 -1.15295e-014
rhumerus -31.2293 -16.378 -73.5912
rradius 28.0205
rwrist -10.552
rhand -17.466 337.941
rfingers 7.12502
rthumb 8.78569 -51.8558
lclavicle 5.85421e-014 -1.15295e-014
lhumerus -34.7786 7.05964 81.327
lradius 40.1256
lwrist 2.06648
lhand -11.0288 -7.55582
lfingers 7.12502
lthumb 14.9927 21.8814
rfemur -22.5815 2.51944 15.3364
rtibia 70.5861
rfoot -5.6762 -14.5131
rtoes -35.9408
lfemur -2.46709 4.05395 -27.8883
ltibia 20.2994
lfoot -11.3663 2.38346
ltoes 23.1929
3537
root 3.76847 17.766 28.3408 179.43 -132.593 178.63
lowerback 9.72051 1.81571 -0.0341808
upperback 2.64283 2.43138 2.13493
thorax -2.79461 1.18994 1.93976
lowerneck -5.02996 7.63232 1.18512
upperneck 25.4323 11.0696 -3.4892
head 9.05455 4.84774 -0.373544
rclavicle -3.29983e-014 1.11319e-014
rhumerus -31.5377 -16.1692 -73.5207
rradius 28.5682
rwrist -11.1187
rhand -17.6673 337.105
rfingers 7.12502
rthumb 8.59144 -52.7
lclavicle -3.29983e-014 1.11319e-014
lhumerus -34.7801 6.8352 81.5146
lradius 40.8329
lwrist 2.06979
lhand -10.9593 -8.45276
lfingers 7.12502
lthumb 15.0597 20.9795
rfemur -23.7837 2.89018 15.4354
rtibia 69.8206
rfoot -5.99822 -15.0239
rtoes -32.8626
lfemur -2.28253 3.70713 -27.8783
ltibia 20.3228
lfoot -11.4763 2.03117
ltoes 22.3624
